<?xml version="1.0" standalone="no"?>
<!DOCTYPE svg PUBLIC "-//W3C//DTD SVG 20010904//EN"
 "http://www.w3.org/TR/2001/REC-SVG-20010904/DTD/svg10.dtd">
<svg version="1.0" xmlns="http://www.w3.org/2000/svg"
 width="121.000000pt" height="121.000000pt" viewBox="0 0 121.000000 121.000000"
 preserveAspectRatio="xMidYMid meet">
<metadata>
Created by potrace 1.11, written by Peter Selinger 2001-2013
</metadata>
<g transform="translate(0.000000,121.000000) scale(0.100000,-0.100000)"
fill="#000000" stroke="none">
<path d="M799 953 c-1 -10 -1 -21 -1 -25 1 -3 -29 -17 -66 -30 -36 -12 -91
-41 -122 -64 -61 -45 -108 -118 -96 -150 6 -16 10 -12 25 21 32 72 117 138
211 165 l32 9 -7 -37 c-12 -61 -13 -68 -60 -301 -25 -124 -45 -232 -45 -242 0
-19 21 -31 37 -21 6 4 37 143 69 309 l58 301 31 5 c28 5 244 1 310 -5 26 -3
30 0 30 22 0 23 -5 25 -53 30 -66 7 -178 5 -254 -4 -54 -6 -58 -6 -58 14 0 26
-39 28 -41 3z"/>
<path d="M300 896 c-83 -26 -200 -114 -200 -149 0 -25 23 -33 34 -11 15 25 86
94 98 94 6 0 8 -10 5 -22 -3 -13 -11 -54 -17 -93 -6 -38 -13 -81 -15 -95 -12
-68 -35 -231 -39 -278 -2 -30 -6 -56 -9 -58 -10 -10 -56 9 -76 30 -25 26 -34
100 -19 153 5 19 7 37 4 40 -12 12 -39 -74 -39 -123 -1 -88 48 -137 136 -137
65 0 106 21 168 84 155 159 210 509 89 559 -40 17 -81 19 -120 6z m111 -55
c30 -30 33 -44 31 -143 -3 -147 -101 -340 -201 -396 -51 -29 -50 -38 -15 175
30 187 32 201 39 233 2 14 7 39 10 55 16 98 20 105 73 105 24 0 42 -9 63 -29z"/>
</g>
</svg>
