<?xml version="1.0" encoding="iso-8859-1"?>
<!-- Generator: Adobe Illustrator 19.0.0, SVG Export Plug-In . SVG Version: 6.00 Build 0)  -->
<svg version="1.1" id="Capa_1" xmlns="http://www.w3.org/2000/svg" xmlns:xlink="http://www.w3.org/1999/xlink" x="0px" y="0px"
	 viewBox="0 0 512 512" style="enable-background:new 0 0 512 512;" xml:space="preserve">
<path style="fill:#FF7CB9;" d="M386.137,394.563l4.072-33.765C390.736,356.287,391,351.775,391,347v-60
	c0-35.933-14.004-69.902-39.463-95.654C325.902,166.019,291.947,152,256,152c-74.443,0-135,60.557-135,135v60
	c0,4.775,0.264,9.287,0.791,13.799l4.072,33.765l-27.656-19.761C54.877,343.88,31,302.044,31,257
	c0-30.425,11.162-59.897,32.402-85.737C61.82,164.905,61,158.387,61,152C61,84.485,150.971,0,256,0s195,84.485,195,152
	c0,6.387-0.82,12.905-2.402,19.263C469.838,197.103,481,226.575,481,257c0,45.044-23.877,86.88-67.207,117.803L386.137,394.563z"/>
<path style="fill:#FF5E95;" d="M351.537,191.346C376.996,217.098,391,251.067,391,287v60c0,4.775-0.264,9.287-0.791,13.799
	l-4.072,33.765l27.656-19.761C457.123,343.88,481,302.044,481,257c0-30.425-11.162-59.897-32.402-85.737
	C450.18,164.905,451,158.387,451,152C451,84.485,361.029,0,256,0v152C291.947,152,325.902,166.019,351.537,191.346z"/>
<path style="fill:#FED2A4;" d="M414.701,242c4.197,14.7,6.299,29.7,6.299,45v60c0,6-0.3,11.7-0.901,17.399
	C411.398,448.4,340.902,512,256,512S100.602,448.4,91.901,364.1C91.3,358.7,91,353,91,347v-60c0-15.601,2.102-30.601,6.299-45
	l126.76-46.235h115.412L414.701,242z"/>
<path style="fill:#FFBD86;" d="M339.47,195.764H256V512c84.902,0,155.398-63.6,164.099-147.601C420.7,358.7,421,353,421,347v-60
	c0-15.3-2.102-30.3-6.299-45L339.47,195.764z"/>
<path style="fill:#895D3C;" d="M256,452c-26.66,0-51.563-14.37-64.922-37.485l25.957-15.029C225.063,413.372,240.004,422,256,422
	s30.938-8.628,38.965-22.515l25.957,15.029C307.563,437.63,282.66,452,256,452z"/>
<path style="fill:#5A5A5A;" d="M414.701,242H338.2c-21.599,0.3-42.297,0.3-55.8-12.9c-1.498-1.501-2.999-3.301-4.2-5.4
	c-0.601,0.298-0.901,0.899-1.501,1.199c-7.2,4.799-13.799,8.399-20.698,11.1c-13.799,5.7-27.297,6.899-42.598,6.899
	c-6.002,0-12.004-0.3-18.303-0.599c-7.2,0-15.3-0.3-24.001-0.3h-73.8C116.8,173,180.7,122,256,122
	c43.799,0,85.203,17.1,116.7,47.999C392.802,190.699,407.201,215.3,414.701,242z"/>
<path style="fill:#444444;" d="M414.701,242H338.2c-21.599,0.3-42.297,0.3-55.8-12.9c-1.498-1.501-2.999-3.301-4.2-5.4
	c-0.601,0.298-0.901,0.899-1.501,1.199c-7.2,4.799-13.799,8.399-20.698,11.1V122c43.799,0,85.203,17.1,116.7,47.999
	C392.802,190.699,407.201,215.3,414.701,242z"/>
<path style="fill:#714C2F;" d="M335.395,328.03c-10.664-10.664-28.125-10.664-38.789,0l-21.211-21.211
	c22.383-22.383,58.828-22.383,81.211,0L335.395,328.03z"/>
<path style="fill:#895D3C;" d="M215.395,328.03c-10.664-10.664-28.125-10.664-38.789,0l-21.211-21.211
	c22.383-22.383,58.828-22.383,81.211,0L215.395,328.03z"/>
<polygon style="fill:#F6A96C;" points="511,32 481,32 481,2 451,2 451,32 421,32 421,62 451,62 451,92 481,92 481,62 511,62 "/>
<g>
	<polygon style="fill:#FFBD86;" points="61,422 31,422 31,452 1,452 1,482 31,482 31,512 61,512 61,482 91,482 91,452 61,452 	"/>
	<rect x="31" y="32" style="fill:#FFBD86;" width="30" height="30"/>
</g>
<rect x="451" y="392" style="fill:#F6A96C;" width="30" height="30"/>
<path style="fill:#714C2F;" d="M320.922,414.515l-25.957-15.029C286.938,413.372,271.996,422,256,422v30
	C282.66,452,307.563,437.63,320.922,414.515z"/>
<g>
</g>
<g>
</g>
<g>
</g>
<g>
</g>
<g>
</g>
<g>
</g>
<g>
</g>
<g>
</g>
<g>
</g>
<g>
</g>
<g>
</g>
<g>
</g>
<g>
</g>
<g>
</g>
<g>
</g>
</svg>
