<?xml version="1.0" encoding="iso-8859-1"?>
<!-- Generator: Adobe Illustrator 19.0.0, SVG Export Plug-In . SVG Version: 6.00 Build 0)  -->
<svg version="1.1" id="Capa_1" xmlns="http://www.w3.org/2000/svg" xmlns:xlink="http://www.w3.org/1999/xlink" x="0px" y="0px"
	 viewBox="0 0 511.999 511.999" style="enable-background:new 0 0 511.999 511.999;" xml:space="preserve">
<g>
	<g>
		<path d="M103.163,256.718H8.597c-4.746,0-8.597,3.843-8.597,8.597v232.118c0,4.754,3.851,8.597,8.597,8.597h94.566
			c4.745,0,8.597-3.852,8.597-8.597V265.315C111.76,260.561,107.909,256.718,103.163,256.718z M94.566,488.835H17.194V273.912
			h77.373V488.835z"/>
	</g>
</g>
<g>
	<g>
		<path d="M111.588,263.63L94.395,177.66c-0.799-4.023-4.324-6.912-8.425-6.912H25.791c-4.092,0-7.626,2.897-8.425,6.912
			L0.172,263.63c-0.507,2.528,0.146,5.15,1.78,7.135s4.066,3.146,6.645,3.146h94.566c2.579,0,5.012-1.161,6.645-3.146
			S112.096,266.157,111.588,263.63z M19.085,256.718l13.755-68.776h46.088l13.755,68.776H19.085z"/>
	</g>
</g>
<g>
	<g>
		<path d="M85.798,177.66l-17.194-85.97c-0.8-4.023-4.324-6.912-8.425-6.912h-8.597c-4.101,0-7.625,2.889-8.425,6.912L25.963,177.66
			c-0.507,2.528,0.146,5.15,1.78,7.135c1.633,1.994,4.066,3.146,6.645,3.146h42.985c2.579,0,5.021-1.161,6.645-3.146
			C85.651,182.81,86.305,180.188,85.798,177.66z M44.876,170.748l11.004-55.029l11.004,55.029H44.876z"/>
	</g>
</g>
<g>
	<g>
		<path d="M510.177,9.28c-2.674-3.422-7.479-4.324-11.202-2.08c-43.191,25.928-94.506,36.743-144.566,30.45l-80.7-10.076
			c-78.92-9.878-158.347,9.611-223.718,54.874l-2.261,1.126c-2.622,1.315-4.402,3.886-4.703,6.809
			c-0.301,2.923,0.911,5.803,3.215,7.625l36.099,28.602c44.678,35.385,98.083,53.069,151.487,53.069
			c53.903,0,107.789-18.019,152.665-54.032l50.782-40.75c10.643-5.459,20.581-12.612,29.359-21.398l42.847-42.856
			C512.55,17.576,512.851,12.702,510.177,9.28z M375.721,112.255c-83.012,66.609-199.269,66.979-282.702,0.877L66.463,92.086
			c53.06-34.714,115.165-51.917,178.292-49.622l87.577,43.217c19.713,9.723,41.093,13.471,62.044,11.606L375.721,112.255z
			 M454.469,51.371c-6.895,6.895-14.615,12.612-22.876,17.099l-0.516-0.636l-3.146,2.528c-27.227,13.36-59.706,13.85-87.99-0.103
			l-46.346-22.868l58.691,7.342c37.302,4.694,75.275,0.55,110.565-11.743L454.469,51.371z"/>
	</g>
</g>
<g>
	<g>
		<path d="M272.669,30.094l-13.274,10.935c11.683,14.176,17.142,32.058,15.38,50.344s-10.54,34.792-24.716,46.475
			c-14.185,11.683-32.058,17.099-50.344,15.38c-18.286-1.771-34.792-10.548-46.475-24.725
			c-17.211-20.882-20.555-50.043-8.537-74.286l-15.406-7.643c-15.027,30.304-10.841,66.755,10.669,92.856
			c14.598,17.727,35.23,28.697,58.09,30.906c2.82,0.266,5.622,0.404,8.416,0.404c19.876,0,38.979-6.826,54.513-19.635
			c17.727-14.598,28.697-35.23,30.906-58.09C294.093,70.164,287.267,47.812,272.669,30.094z"/>
	</g>
</g>
<g>
</g>
<g>
</g>
<g>
</g>
<g>
</g>
<g>
</g>
<g>
</g>
<g>
</g>
<g>
</g>
<g>
</g>
<g>
</g>
<g>
</g>
<g>
</g>
<g>
</g>
<g>
</g>
<g>
</g>
</svg>
